<?xml version="1.0" encoding="UTF-8"?>
<!DOCTYPE svg PUBLIC "-//W3C//DTD SVG 1.1//EN" "http://www.w3.org/Graphics/SVG/1.1/DTD/svg11.dtd">
<svg xmlns="http://www.w3.org/2000/svg" xmlns:xlink="http://www.w3.org/1999/xlink" version="1.1" width="160px" height="160px" viewBox="-0.5 -0.5 160 160"><defs/><g><g><path d="M 27.93 113.5 Q 27.93 113.5 70.07 134.5" fill="none" stroke="#9673a6" stroke-width="8" stroke-miterlimit="10" pointer-events="stroke"/></g><g><path d="M 28.69 106.54 Q 28.69 106.54 49.31 101.46" fill="none" stroke="#9673a6" stroke-width="8" stroke-miterlimit="10" pointer-events="stroke"/></g><g><path d="M 99 89 Q 99 89 99 69" fill="none" stroke="#9673a6" stroke-width="8" stroke-miterlimit="10" pointer-events="stroke"/></g><g><path d="M 49.31 56.54 Q 49.31 56.54 28.69 51.46" fill="none" stroke="#9673a6" stroke-width="8" stroke-miterlimit="10" pointer-events="stroke"/></g><g><path d="M 70.07 23.5 Q 70.07 23.5 27.93 44.5" fill="none" stroke="#9673a6" stroke-width="8" stroke-miterlimit="10" pointer-events="stroke"/></g><g><path d="M 59 89 Q 59 89 59 69" fill="none" stroke="#9673a6" stroke-width="8" stroke-miterlimit="10" pointer-events="stroke"/></g><g><path d="M 83.5 130.07 Q 83.5 130.07 94.51 107.93" fill="none" stroke="#9673a6" stroke-width="8" stroke-miterlimit="10" pointer-events="stroke"/></g><g><path d="M 87.93 134.5 Q 87.93 134.5 130.07 113.5" fill="none" stroke="#9673a6" stroke-width="8" stroke-miterlimit="10" pointer-events="stroke"/></g><g><path d="M 108.69 101.46 Q 108.69 101.46 129.31 106.54" fill="none" stroke="#9673a6" stroke-width="8" stroke-miterlimit="10" pointer-events="stroke"/></g><g><path d="M 108.69 56.54 Q 108.69 56.54 129.31 51.46" fill="none" stroke="#9673a6" stroke-width="8" stroke-miterlimit="10" pointer-events="stroke"/></g><g><path d="M 87.93 23.5 Q 87.93 23.5 130.07 44.5" fill="none" stroke="#9673a6" stroke-width="8" stroke-miterlimit="10" pointer-events="stroke"/></g><g><path d="M 83.5 27.93 Q 83.5 27.93 94.51 50.07" fill="none" stroke="#9673a6" stroke-width="8" stroke-miterlimit="10" pointer-events="stroke"/></g><g><path d="M 74.5 27.93 Q 74.5 27.93 63.49 50.07" fill="none" stroke="#9673a6" stroke-width="8" stroke-miterlimit="10" pointer-events="stroke"/></g><g><ellipse cx="59" cy="59" rx="9.999999999999998" ry="9.999999999999998" fill="#d5e8d4" stroke="#82b366" stroke-width="8" transform="rotate(-45,59,59)" pointer-events="all"/></g><g><ellipse cx="99" cy="59" rx="9.999999999999998" ry="9.999999999999998" fill="#d5e8d4" stroke="#82b366" stroke-width="8" transform="rotate(-45,99,59)" pointer-events="all"/></g><g><ellipse cx="99" cy="99" rx="9.999999999999998" ry="9.999999999999998" fill="#d5e8d4" stroke="#82b366" stroke-width="8" transform="rotate(-45,99,99)" pointer-events="all"/></g><g><ellipse cx="19" cy="49" rx="9.999999999999998" ry="9.999999999999998" fill="#dae8fc" stroke="#6c8ebf" stroke-width="8" transform="rotate(-45,19,49)" pointer-events="all"/></g><g><ellipse cx="79" cy="19" rx="9.999999999999998" ry="9.999999999999998" fill="#dae8fc" stroke="#6c8ebf" stroke-width="8" transform="rotate(-45,79,19)" pointer-events="all"/></g><g><ellipse cx="139" cy="49" rx="9.999999999999998" ry="9.999999999999998" fill="#dae8fc" stroke="#6c8ebf" stroke-width="8" transform="rotate(-45,139,49)" pointer-events="all"/></g><g><ellipse cx="79" cy="139" rx="9.999999999999998" ry="9.999999999999998" fill="#dae8fc" stroke="#6c8ebf" stroke-width="8" transform="rotate(-45,79,139)" pointer-events="all"/></g><g><ellipse cx="139" cy="109" rx="9.999999999999998" ry="9.999999999999998" fill="#dae8fc" stroke="#6c8ebf" stroke-width="8" transform="rotate(-45,139,109)" pointer-events="all"/></g><g><ellipse cx="19" cy="109" rx="9.999999999999998" ry="9.999999999999998" fill="#dae8fc" stroke="#6c8ebf" stroke-width="8" transform="rotate(-45,19,109)" pointer-events="all"/></g><g><path d="M 74.5 130.07 Q 74.5 130.07 63.49 107.93" fill="none" stroke="#9673a6" stroke-width="8" stroke-miterlimit="10" pointer-events="stroke"/></g><g><ellipse cx="59" cy="99" rx="9.999999999999998" ry="9.999999999999998" fill="#d5e8d4" stroke="#82b366" stroke-width="8" transform="rotate(-45,59,99)" pointer-events="all"/></g></g></svg>