<?xml version="1.0" encoding="UTF-8"?>
<!DOCTYPE svg PUBLIC "-//W3C//DTD SVG 1.1//EN" "http://www.w3.org/Graphics/SVG/1.1/DTD/svg11.dtd">
<svg xmlns="http://www.w3.org/2000/svg" xmlns:xlink="http://www.w3.org/1999/xlink" version="1.1" width="160px" height="160px" viewBox="-0.5 -0.5 160 160"><defs/><g><g><path d="M 74.53 130.06 Q 74.53 130.06 63.52 107.92" fill="none" stroke="#9673a6" stroke-width="8" stroke-miterlimit="10" pointer-events="stroke"/></g><g><path d="M 27.94 113.49 Q 27.94 113.49 70.06 134.51" fill="none" stroke="#9673a6" stroke-width="8" stroke-miterlimit="10" pointer-events="stroke"/></g><g><path d="M 28.71 106.59 Q 28.71 106.59 49.3 101.44" fill="none" stroke="#9673a6" stroke-width="8" stroke-miterlimit="10" pointer-events="stroke"/></g><g><path d="M 99 89 Q 99 89 99 69" fill="none" stroke="#9673a6" stroke-width="8" stroke-miterlimit="10" pointer-events="stroke"/></g><g><path d="M 49.29 56.59 Q 49.29 56.59 28.7 51.44" fill="none" stroke="#9673a6" stroke-width="8" stroke-miterlimit="10" pointer-events="stroke"/></g><g><path d="M 70.06 23.49 Q 70.06 23.49 27.94 44.51" fill="none" stroke="#9673a6" stroke-width="8" stroke-miterlimit="10" pointer-events="stroke"/></g><g><path d="M 59 89 Q 59 89 59 69" fill="none" stroke="#9673a6" stroke-width="8" stroke-miterlimit="10" pointer-events="stroke"/></g><g><path d="M 83.47 130.06 Q 83.47 130.06 94.48 107.92" fill="none" stroke="#9673a6" stroke-width="8" stroke-miterlimit="10" pointer-events="stroke"/></g><g><path d="M 87.94 134.51 Q 87.94 134.51 130.06 113.49" fill="none" stroke="#9673a6" stroke-width="8" stroke-miterlimit="10" pointer-events="stroke"/></g><g><path d="M 108.71 101.41 Q 108.71 101.41 129.3 106.56" fill="none" stroke="#9673a6" stroke-width="8" stroke-miterlimit="10" pointer-events="stroke"/></g><g><path d="M 108.71 56.59 Q 108.71 56.59 129.3 51.44" fill="none" stroke="#9673a6" stroke-width="8" stroke-miterlimit="10" pointer-events="stroke"/></g><g><path d="M 87.94 23.49 Q 87.94 23.49 130.06 44.51" fill="none" stroke="#9673a6" stroke-width="8" stroke-miterlimit="10" pointer-events="stroke"/></g><g><path d="M 83.47 27.94 Q 83.47 27.94 94.48 50.08" fill="none" stroke="#9673a6" stroke-width="8" stroke-miterlimit="10" pointer-events="stroke"/></g><g><path d="M 74.53 27.94 Q 74.53 27.94 63.52 50.08" fill="none" stroke="#9673a6" stroke-width="8" stroke-miterlimit="10" pointer-events="stroke"/></g><g><ellipse cx="59" cy="59" rx="10" ry="10" fill="#d5e8d4" stroke="#82b366" stroke-width="8" transform="rotate(-45,59,59)" pointer-events="all"/></g><g><ellipse cx="99" cy="59" rx="10" ry="10" fill="#d5e8d4" stroke="#82b366" stroke-width="8" transform="rotate(-45,99,59)" pointer-events="all"/></g><g><ellipse cx="99" cy="99" rx="10" ry="10" fill="#d5e8d4" stroke="#82b366" stroke-width="8" transform="rotate(-45,99,99)" pointer-events="all"/></g><g><ellipse cx="19" cy="49" rx="10" ry="10" fill="#dae8fc" stroke="#6c8ebf" stroke-width="8" transform="rotate(-45,19,49)" pointer-events="all"/></g><g><ellipse cx="79" cy="19" rx="10" ry="10" fill="#dae8fc" stroke="#6c8ebf" stroke-width="8" transform="rotate(-45,79,19)" pointer-events="all"/></g><g><ellipse cx="139" cy="49" rx="10" ry="10" fill="#dae8fc" stroke="#6c8ebf" stroke-width="8" transform="rotate(-45,139,49)" pointer-events="all"/></g><g><ellipse cx="79" cy="139" rx="10" ry="10" fill="#f8cecc" stroke="#b85450" stroke-width="8" transform="rotate(-45,79,139)" pointer-events="all"/></g><g><ellipse cx="139" cy="109" rx="10" ry="10" fill="#dae8fc" stroke="#6c8ebf" stroke-width="8" transform="rotate(-45,139,109)" pointer-events="all"/></g><g><ellipse cx="19" cy="109" rx="10" ry="10" fill="#dae8fc" stroke="#6c8ebf" stroke-width="8" transform="rotate(-45,19,109)" pointer-events="all"/></g><g><ellipse cx="59" cy="99" rx="10" ry="10" fill="#d5e8d4" stroke="#82b366" stroke-width="8" transform="rotate(-45,59,99)" pointer-events="all"/></g></g></svg>