<?xml version="1.0" encoding="UTF-8"?>
<!DOCTYPE svg PUBLIC "-//W3C//DTD SVG 1.1//EN" "http://www.w3.org/Graphics/SVG/1.1/DTD/svg11.dtd">
<svg xmlns="http://www.w3.org/2000/svg" xmlns:xlink="http://www.w3.org/1999/xlink" version="1.1" width="186px" height="186px" viewBox="-0.5 -0.5 186 186"><defs/><g><g data-cell-id="0"><g data-cell-id="1"><g data-cell-id="2B50qve774l08q9C8e2t-15"><g><path d="M 88.3 152.71 Q 88.3 152.71 75.75 121.27" fill="none" stroke="#9673a6" stroke-width="12" stroke-miterlimit="10" pointer-events="stroke"/></g></g><g data-cell-id="2B50qve774l08q9C8e2t-11"><g><path d="M 30.69 126.95 Q 30.69 126.95 83.33 157.01" fill="none" stroke="#9673a6" stroke-width="12" stroke-miterlimit="10" pointer-events="stroke"/></g></g><g data-cell-id="2B50qve774l08q9C8e2t-12"><g><path d="M 31.79 119.98 Q 31.79 119.98 62.2 114.01" fill="none" stroke="#9673a6" stroke-width="12" stroke-miterlimit="10" pointer-events="stroke"/></g></g><g data-cell-id="YQ_vCiLVebtXYdtv0gI_-11"><g><path d="M 112 102 Q 112 102 112 82" fill="none" stroke="#9673a6" stroke-width="12" stroke-miterlimit="10" pointer-events="stroke"/></g></g><g data-cell-id="YQ_vCiLVebtXYdtv0gI_-13"><g><path d="M 62.21 69.98 Q 62.21 69.98 31.8 64.01" fill="none" stroke="#9673a6" stroke-width="12" stroke-miterlimit="10" pointer-events="stroke"/></g></g><g data-cell-id="YQ_vCiLVebtXYdtv0gI_-15"><g><path d="M 83.31 26.95 Q 83.31 26.95 30.67 57.01" fill="none" stroke="#9673a6" stroke-width="12" stroke-miterlimit="10" pointer-events="stroke"/></g></g><g data-cell-id="YQ_vCiLVebtXYdtv0gI_-17"><g><path d="M 72 102 Q 72 102 72 82" fill="none" stroke="#9673a6" stroke-width="12" stroke-miterlimit="10" pointer-events="stroke"/></g></g><g data-cell-id="2B50qve774l08q9C8e2t-1"><g><path d="M 95.7 152.71 Q 95.7 152.71 108.25 121.27" fill="none" stroke="#9673a6" stroke-width="12" stroke-miterlimit="10" pointer-events="stroke"/></g></g><g data-cell-id="2B50qve774l08q9C8e2t-2"><g><path d="M 100.69 157.05 Q 100.69 157.05 153.33 126.99" fill="none" stroke="#9673a6" stroke-width="12" stroke-miterlimit="10" pointer-events="stroke"/></g></g><g data-cell-id="2B50qve774l08q9C8e2t-3"><g><path d="M 121.79 114.02 Q 121.79 114.02 152.2 119.99" fill="none" stroke="#9673a6" stroke-width="12" stroke-miterlimit="10" pointer-events="stroke"/></g></g><g data-cell-id="2B50qve774l08q9C8e2t-4"><g><path d="M 121.79 69.98 Q 121.79 69.98 152.2 64.01" fill="none" stroke="#9673a6" stroke-width="12" stroke-miterlimit="10" pointer-events="stroke"/></g></g><g data-cell-id="2B50qve774l08q9C8e2t-5"><g><path d="M 100.69 26.95 Q 100.69 26.95 153.33 57.01" fill="none" stroke="#9673a6" stroke-width="12" stroke-miterlimit="10" pointer-events="stroke"/></g></g><g data-cell-id="2B50qve774l08q9C8e2t-6"><g><path d="M 95.7 31.29 Q 95.7 31.29 108.25 62.73" fill="none" stroke="#9673a6" stroke-width="12" stroke-miterlimit="10" pointer-events="stroke"/></g></g><g data-cell-id="2B50qve774l08q9C8e2t-7"><g><path d="M 88.3 31.29 Q 88.3 31.29 75.75 62.73" fill="none" stroke="#9673a6" stroke-width="12" stroke-miterlimit="10" pointer-events="stroke"/></g></g><g data-cell-id="YQ_vCiLVebtXYdtv0gI_-1"><g><ellipse cx="72" cy="72" rx="10" ry="10" fill="#d5e8d4" stroke="#82b366" stroke-width="12" transform="rotate(-45,72,72)" pointer-events="all"/></g></g><g data-cell-id="YQ_vCiLVebtXYdtv0gI_-3"><g><ellipse cx="112" cy="72" rx="10" ry="10" fill="#d5e8d4" stroke="#82b366" stroke-width="12" transform="rotate(-45,112,72)" pointer-events="all"/></g></g><g data-cell-id="YQ_vCiLVebtXYdtv0gI_-4"><g><ellipse cx="112" cy="112" rx="10" ry="10" fill="#d5e8d4" stroke="#82b366" stroke-width="12" transform="rotate(-45,112,112)" pointer-events="all"/></g></g><g data-cell-id="YQ_vCiLVebtXYdtv0gI_-5"><g><ellipse cx="22" cy="62" rx="10" ry="10" fill="#f8cecc" stroke="#b85450" stroke-width="12" transform="rotate(-45,22,62)" pointer-events="all"/></g></g><g data-cell-id="YQ_vCiLVebtXYdtv0gI_-6"><g><ellipse cx="92" cy="22" rx="10" ry="10" fill="#dae8fc" stroke="#6c8ebf" stroke-width="12" transform="rotate(-45,92,22)" pointer-events="all"/></g></g><g data-cell-id="YQ_vCiLVebtXYdtv0gI_-7"><g><ellipse cx="162" cy="62" rx="10" ry="10" fill="#f8cecc" stroke="#b85450" stroke-width="12" transform="rotate(-45,162,62)" pointer-events="all"/></g></g><g data-cell-id="YQ_vCiLVebtXYdtv0gI_-8"><g><ellipse cx="92" cy="162" rx="10" ry="10" fill="#f8cecc" stroke="#b85450" stroke-width="12" transform="rotate(-45,92,162)" pointer-events="all"/></g></g><g data-cell-id="2B50qve774l08q9C8e2t-9"><g><ellipse cx="162" cy="122" rx="10" ry="10" fill="#dae8fc" stroke="#6c8ebf" stroke-width="12" transform="rotate(-45,162,122)" pointer-events="all"/></g></g><g data-cell-id="2B50qve774l08q9C8e2t-10"><g><ellipse cx="22" cy="122" rx="10" ry="10" fill="#dae8fc" stroke="#6c8ebf" stroke-width="12" transform="rotate(-45,22,122)" pointer-events="all"/></g></g><g data-cell-id="2B50qve774l08q9C8e2t-14"><g><ellipse cx="72" cy="112" rx="10" ry="10" fill="#d5e8d4" stroke="#82b366" stroke-width="12" transform="rotate(-45,72,112)" pointer-events="all"/></g></g></g></g></g></svg>