<svg xmlns="http://www.w3.org/2000/svg" xmlns:xlink="http://www.w3.org/1999/xlink" version="1.1" width="513px" height="513px" viewBox="-0.5 -0.5 513 513"><defs/><g><path d="M 254.62 112.34 Q 254.62 112.34 254.62 254.62" fill="none" stroke="#82b366" stroke-width="13.84" stroke-miterlimit="10" pointer-events="stroke"/><path d="M 254.62 76.36 L 266.61 112.34 L 242.63 112.34 Z" fill="#82b366" stroke="#82b366" stroke-width="13.84" stroke-miterlimit="10" pointer-events="all"/><path d="M 169.95 169.95 Q 169.95 169.95 254.62 254.62" fill="none" stroke="#82b366" stroke-width="13.84" stroke-miterlimit="10" pointer-events="stroke"/><path d="M 119.07 119.07 L 157.23 131.79 L 131.79 157.23 Z M 144.51 144.51 L 182.67 157.23 L 157.23 182.67 Z" fill="#82b366" stroke="#82b366" stroke-width="13.84" stroke-miterlimit="10" pointer-events="all"/><path d="M 339.28 169.95 Q 339.28 169.95 254.62 254.62" fill="none" stroke="#82b366" stroke-width="13.84" stroke-miterlimit="10" pointer-events="stroke"/><path d="M 390.17 119.07 L 377.45 157.23 L 352 131.79 Z M 364.72 144.51 L 352 182.67 L 326.56 157.23 Z" fill="#82b366" stroke="#82b366" stroke-width="13.84" stroke-miterlimit="10" pointer-events="all"/><path d="M 191.16 318.08 Q 191.16 318.08 254.62 254.62" fill="none" stroke="#82b366" stroke-width="13.84" stroke-miterlimit="10" pointer-events="stroke"/><path d="M 318.08 318.08 Q 318.08 318.08 254.62 254.62" fill="none" stroke="#82b366" stroke-width="13.84" stroke-miterlimit="10" pointer-events="stroke"/><path d="M 240.31 452.33 Q 240.31 452.33 185.83 361.38" fill="none" stroke="#82b366" stroke-width="13.84" stroke-miterlimit="10" pointer-events="stroke"/><path d="M 268.92 452.33 Q 268.92 452.33 323.41 361.38" fill="none" stroke="#82b366" stroke-width="13.84" stroke-miterlimit="10" pointer-events="stroke"/><path d="M 147.9 323.34 Q 147.9 323.34 56.94 268.86" fill="none" stroke="#82b366" stroke-width="13.84" stroke-miterlimit="10" pointer-events="stroke"/><path d="M 309.97 337.65 Q 309.97 337.65 199.27 337.65" fill="none" stroke="#82b366" stroke-width="13.84" stroke-miterlimit="10" pointer-events="stroke"/><path d="M 452.33 268.92 Q 452.33 268.92 361.38 323.41" fill="none" stroke="#82b366" stroke-width="13.84" stroke-miterlimit="10" pointer-events="stroke"/><path d="M 448.35 254.62 Q 448.35 254.62 60.89 254.62" fill="none" stroke="#82b366" stroke-width="13.84" stroke-miterlimit="10" pointer-events="stroke"/><ellipse cx="33.21" cy="254.62" rx="27.676" ry="27.676" fill="#e1d5e7" stroke="#9673a6" stroke-width="13.84" pointer-events="all"/><ellipse cx="254.62" cy="33.21" rx="27.676" ry="27.676" fill="#e1d5e7" stroke="#9673a6" stroke-width="13.84" pointer-events="all"/><ellipse cx="476.03" cy="254.62" rx="27.676" ry="27.676" fill="#e1d5e7" stroke="#9673a6" stroke-width="13.84" pointer-events="all"/><ellipse cx="420.68" cy="88.56" rx="27.676" ry="27.676" fill="#e1d5e7" stroke="#9673a6" stroke-width="13.84" pointer-events="all"/><ellipse cx="88.56" cy="88.56" rx="27.676" ry="27.676" fill="#e1d5e7" stroke="#9673a6" stroke-width="13.84" pointer-events="all"/><ellipse cx="254.62" cy="476.03" rx="27.676" ry="27.676" fill="#e1d5e7" stroke="#9673a6" stroke-width="13.84" pointer-events="all"/><path d="M 143.92 143.92 C 143.92 205.06 193.48 254.62 254.62 254.62 C 315.76 254.62 365.32 205.06 365.32 143.92 Z" fill="#dae8fc" stroke="#6c8ebf" stroke-width="13.84" stroke-miterlimit="10" transform="rotate(-180,254.62,199.27)" pointer-events="all"/><path d="M 199.27 199.27 C 199.27 229.84 224.05 254.62 254.62 254.62 C 285.19 254.62 309.97 229.84 309.97 199.27 Z" fill="#e1d5e7" stroke="#9673a6" stroke-width="13.84" stroke-miterlimit="10" transform="rotate(-180,254.62,226.94)" pointer-events="all"/><ellipse cx="171.59" cy="337.65" rx="55.352" ry="55.352" fill="#dae8fc" stroke="#6c8ebf" stroke-width="13.84" pointer-events="all"/><ellipse cx="337.65" cy="337.65" rx="55.352" ry="55.352" fill="#dae8fc" stroke="#6c8ebf" stroke-width="13.84" pointer-events="all"/><ellipse cx="337.65" cy="337.65" rx="27.676" ry="27.676" fill="#e1d5e7" stroke="#9673a6" stroke-width="13.84" pointer-events="all"/><ellipse cx="171.59" cy="337.65" rx="27.676" ry="27.676" fill="#e1d5e7" stroke="#9673a6" stroke-width="13.84" pointer-events="all"/></g></svg>